<svg id="svg" version="1.1" xmlns="http://www.w3.org/2000/svg" xmlns:xlink="http://www.w3.org/1999/xlink" width="400" height="400" viewBox="0, 0, 400,400"><g id="svgg"><path id="path0" d="M177.200 0.600 C 177.200 1.108,176.244 1.200,170.992 1.200 L 164.785 1.200 165.036 2.200 L 165.287 3.200 160.843 3.200 L 156.400 3.200 156.400 4.200 C 156.400 5.193,156.373 5.200,152.800 5.200 C 149.227 5.200,149.200 5.207,149.200 6.200 L 149.200 7.200 144.400 7.200 L 139.600 7.200 139.600 8.200 C 139.600 9.215,137.872 9.529,134.047 9.209 C 133.223 9.140,133.120 9.270,133.291 10.164 C 133.484 11.174,133.436 11.200,131.345 11.200 C 129.324 11.200,129.200 11.258,129.200 12.200 C 129.200 13.178,129.133 13.200,126.200 13.200 C 123.267 13.200,123.200 13.222,123.200 14.200 C 123.200 15.133,123.067 15.200,121.200 15.200 C 119.333 15.200,119.200 15.267,119.200 16.200 C 119.200 17.178,119.133 17.200,116.200 17.200 C 113.267 17.200,113.200 17.222,113.200 18.200 C 113.200 19.000,113.000 19.200,112.200 19.200 C 111.400 19.200,111.200 19.400,111.200 20.200 C 111.200 21.164,108.693 21.629,105.677 21.225 C 105.390 21.186,105.186 21.390,105.225 21.677 C 105.383 22.855,105.151 23.200,104.200 23.200 C 103.400 23.200,103.200 23.400,103.200 24.200 C 103.200 25.133,103.067 25.200,101.200 25.200 C 99.333 25.200,99.200 25.267,99.200 26.200 C 99.200 27.116,99.052 27.200,97.427 27.200 C 95.796 27.200,95.643 27.287,95.527 28.284 C 95.405 29.326,95.318 29.363,93.300 29.254 C 91.281 29.145,91.200 29.180,91.200 30.170 C 91.200 31.002,91.008 31.200,90.200 31.200 C 89.400 31.200,89.200 31.400,89.200 32.200 C 89.200 32.990,88.998 33.200,88.235 33.200 C 87.444 33.200,87.290 33.379,87.380 34.200 C 87.485 35.156,87.396 35.200,85.345 35.200 C 83.324 35.200,83.200 35.258,83.200 36.200 C 83.200 36.922,82.985 37.200,82.427 37.200 C 81.883 37.200,81.615 37.523,81.527 38.284 C 81.405 39.326,81.318 39.363,79.300 39.254 C 77.281 39.145,77.200 39.180,77.200 40.170 C 77.200 41.002,77.008 41.200,76.200 41.200 C 75.413 41.200,75.200 41.403,75.200 42.153 C 75.200 42.756,74.918 43.180,74.434 43.307 C 74.011 43.418,73.608 43.932,73.534 44.454 C 73.436 45.147,73.106 45.434,72.300 45.527 C 71.523 45.616,71.200 45.880,71.200 46.427 C 71.200 46.924,70.924 47.200,70.427 47.200 C 69.883 47.200,69.615 47.523,69.527 48.284 C 69.405 49.326,69.318 49.363,67.300 49.254 C 65.281 49.145,65.200 49.180,65.200 50.170 C 65.200 51.002,65.008 51.200,64.200 51.200 C 63.400 51.200,63.200 51.400,63.200 52.200 C 63.200 53.000,63.000 53.200,62.200 53.200 C 61.400 53.200,61.200 53.400,61.200 54.200 C 61.200 55.000,61.000 55.200,60.200 55.200 C 59.400 55.200,59.200 55.400,59.200 56.200 C 59.200 57.000,59.000 57.200,58.200 57.200 C 57.400 57.200,57.200 57.400,57.200 58.200 C 57.200 59.000,57.000 59.200,56.200 59.200 C 55.400 59.200,55.200 59.400,55.200 60.200 C 55.200 61.000,55.000 61.200,54.200 61.200 C 53.400 61.200,53.200 61.400,53.200 62.200 C 53.200 63.000,53.000 63.200,52.200 63.200 C 51.400 63.200,51.200 63.400,51.200 64.200 C 51.200 64.994,50.999 65.200,50.221 65.200 C 49.322 65.200,49.232 65.372,49.121 67.300 C 49.016 69.129,48.884 69.416,48.100 69.528 C 47.522 69.610,47.200 69.932,47.200 70.428 C 47.200 70.924,46.924 71.200,46.427 71.200 C 45.880 71.200,45.616 71.523,45.527 72.300 C 45.437 73.080,45.143 73.437,44.519 73.525 C 44.034 73.594,43.527 73.999,43.392 74.425 C 43.177 75.103,42.487 75.403,41.500 75.247 C 41.335 75.221,41.200 75.650,41.200 76.200 C 41.200 77.007,41.002 77.200,40.171 77.200 C 39.181 77.200,39.148 77.278,39.271 79.300 C 39.396 81.330,39.363 81.404,38.300 81.527 C 37.523 81.616,37.200 81.880,37.200 82.427 C 37.200 82.992,36.921 83.200,36.163 83.200 C 35.162 83.200,35.131 83.272,35.263 85.300 C 35.396 87.332,35.365 87.404,34.300 87.527 C 33.523 87.616,33.200 87.880,33.200 88.427 C 33.200 88.985,32.922 89.200,32.200 89.200 C 31.400 89.200,31.200 89.400,31.200 90.200 C 31.200 91.009,31.002 91.200,30.163 91.200 C 29.162 91.200,29.131 91.272,29.263 93.300 C 29.397 95.361,29.379 95.400,28.300 95.384 C 27.251 95.369,27.200 95.457,27.200 97.284 C 27.200 99.079,27.135 99.200,26.163 99.200 C 25.162 99.200,25.131 99.272,25.263 101.300 C 25.396 103.344,25.370 103.403,24.272 103.529 C 23.193 103.653,23.148 103.742,23.260 105.529 C 23.372 107.314,23.326 107.406,22.255 107.530 C 21.182 107.654,21.139 107.741,21.266 109.530 C 21.395 111.323,21.354 111.405,20.266 111.530 C 19.179 111.654,19.138 111.736,19.266 113.530 C 19.394 115.311,19.348 115.406,18.300 115.527 C 17.105 115.664,16.908 116.379,17.578 118.143 C 18.015 119.291,17.333 120.129,16.130 119.924 C 15.513 119.819,15.400 120.079,15.400 121.600 C 15.400 123.266,15.318 123.409,14.300 123.527 C 13.133 123.661,12.750 126.144,13.579 128.200 C 13.996 129.236,13.373 130.000,12.110 130.000 C 11.138 130.000,11.121 130.055,11.259 132.700 C 11.399 135.388,11.395 135.401,10.300 135.527 C 9.140 135.660,8.908 136.508,9.569 138.200 C 9.986 139.268,9.232 140.400,8.104 140.400 C 7.104 140.400,6.730 145.912,7.578 148.143 C 8.040 149.358,7.240 150.208,5.952 149.872 C 5.112 149.652,5.104 149.704,5.378 153.569 L 5.656 157.489 4.384 157.743 L 3.112 157.998 3.256 161.899 L 3.400 165.800 2.300 165.927 L 1.200 166.053 1.200 169.498 C 1.200 171.393,1.405 173.510,1.656 174.203 C 2.311 176.016,1.772 179.230,0.769 179.492 C -0.247 179.758,-0.462 220.800,0.551 220.800 C 1.607 220.800,2.170 223.061,1.661 225.262 C 0.780 229.079,1.039 234.000,2.120 234.000 C 3.549 234.000,3.972 234.669,3.538 236.241 C 2.804 238.896,3.257 242.133,4.400 242.408 C 5.389 242.647,5.399 242.688,5.266 246.325 C 5.147 249.596,5.343 250.444,6.100 249.932 C 6.769 249.480,7.922 250.954,7.587 251.833 C 6.769 253.986,7.095 259.952,8.018 259.711 C 9.079 259.434,10.081 260.702,9.564 261.668 C 8.799 263.097,9.124 264.338,10.300 264.473 L 11.400 264.600 11.255 267.560 C 11.139 269.934,11.218 270.479,11.655 270.313 C 12.900 269.838,14.018 270.702,13.596 271.812 C 12.739 274.064,13.082 276.333,14.300 276.473 C 15.348 276.594,15.394 276.690,15.280 278.500 C 15.175 280.164,15.258 280.400,15.947 280.400 C 17.540 280.400,17.982 280.796,17.577 281.860 C 16.908 283.621,17.105 284.336,18.300 284.473 C 19.348 284.594,19.394 284.689,19.266 286.470 C 19.138 288.264,19.179 288.346,20.266 288.470 C 21.353 288.595,21.395 288.678,21.270 290.471 C 21.146 292.258,21.190 292.347,22.259 292.471 C 23.325 292.594,23.372 292.687,23.260 294.471 C 23.148 296.258,23.193 296.347,24.272 296.471 C 25.370 296.597,25.396 296.656,25.263 298.700 C 25.131 300.728,25.162 300.800,26.163 300.800 C 27.123 300.800,27.200 300.932,27.200 302.573 C 27.200 304.211,27.284 304.357,28.300 304.473 C 29.363 304.596,29.396 304.670,29.271 306.700 C 29.148 308.722,29.181 308.800,30.171 308.800 C 31.002 308.800,31.200 308.993,31.200 309.800 C 31.200 310.600,31.400 310.800,32.200 310.800 C 32.922 310.800,33.200 311.015,33.200 311.573 C 33.200 312.120,33.523 312.384,34.300 312.473 C 35.365 312.596,35.396 312.668,35.263 314.700 C 35.133 316.705,35.172 316.800,36.117 316.800 C 36.756 316.800,37.178 317.072,37.307 317.566 C 37.418 317.989,37.932 318.392,38.454 318.466 C 39.331 318.590,39.391 318.753,39.271 320.700 C 39.148 322.722,39.181 322.800,40.171 322.800 C 41.008 322.800,41.200 322.991,41.200 323.824 C 41.200 324.387,41.335 324.768,41.500 324.671 C 42.041 324.352,43.600 325.161,43.600 325.759 C 43.600 326.081,44.005 326.402,44.500 326.472 C 45.144 326.564,45.436 326.912,45.527 327.700 C 45.616 328.477,45.880 328.800,46.427 328.800 C 46.924 328.800,47.200 329.076,47.200 329.573 C 47.200 330.120,47.523 330.384,48.300 330.473 C 49.365 330.596,49.396 330.668,49.263 332.700 C 49.131 334.728,49.162 334.800,50.163 334.800 C 51.002 334.800,51.200 334.991,51.200 335.800 C 51.200 336.600,51.400 336.800,52.200 336.800 C 53.000 336.800,53.200 337.000,53.200 337.800 C 53.200 338.600,53.400 338.800,54.200 338.800 C 55.000 338.800,55.200 339.000,55.200 339.800 C 55.200 340.600,55.400 340.800,56.200 340.800 C 57.000 340.800,57.200 341.000,57.200 341.800 C 57.200 342.600,57.400 342.800,58.200 342.800 C 59.000 342.800,59.200 343.000,59.200 343.800 C 59.200 344.600,59.400 344.800,60.200 344.800 C 61.000 344.800,61.200 345.000,61.200 345.800 C 61.200 346.600,61.400 346.800,62.200 346.800 C 63.000 346.800,63.200 347.000,63.200 347.800 C 63.200 348.600,63.400 348.800,64.200 348.800 C 65.000 348.800,65.200 349.000,65.200 349.800 C 65.200 350.730,65.336 350.800,67.157 350.800 C 68.910 350.800,69.139 350.904,69.364 351.800 C 69.526 352.446,69.896 352.800,70.408 352.800 C 70.937 352.800,71.200 353.069,71.200 353.610 C 71.200 354.190,71.541 354.488,72.400 354.660 C 73.246 354.829,73.600 355.133,73.600 355.687 C 73.600 356.138,73.942 356.564,74.400 356.684 C 74.918 356.819,75.200 357.230,75.200 357.847 C 75.200 358.597,75.413 358.800,76.200 358.800 C 77.000 358.800,77.200 359.000,77.200 359.800 C 77.200 360.745,77.320 360.800,79.400 360.800 C 81.480 360.800,81.600 360.855,81.600 361.800 C 81.600 362.533,81.813 362.800,82.400 362.800 C 82.987 362.800,83.200 363.067,83.200 363.800 C 83.200 364.748,83.317 364.800,85.447 364.800 C 87.627 364.800,87.688 364.829,87.502 365.800 C 87.342 366.638,87.464 366.800,88.255 366.800 C 88.996 366.800,89.200 367.016,89.200 367.800 C 89.200 368.600,89.400 368.800,90.200 368.800 C 91.000 368.800,91.200 369.000,91.200 369.800 C 91.200 370.733,91.333 370.800,93.200 370.800 C 95.067 370.800,95.200 370.867,95.200 371.800 C 95.200 372.733,95.333 372.800,97.200 372.800 C 99.067 372.800,99.200 372.867,99.200 373.800 C 99.200 374.733,99.333 374.800,101.200 374.800 C 103.067 374.800,103.200 374.867,103.200 375.800 C 103.200 376.600,103.400 376.800,104.200 376.800 C 105.145 376.800,105.380 377.143,105.230 378.300 C 105.183 378.662,106.000 378.800,108.182 378.800 C 111.135 378.800,111.200 378.822,111.200 379.800 C 111.200 380.600,111.400 380.800,112.200 380.800 C 113.140 380.800,113.378 381.141,113.234 382.283 C 113.192 382.615,114.142 382.802,116.286 382.883 C 119.094 382.989,119.400 383.079,119.400 383.800 C 119.400 384.325,119.709 384.644,120.300 384.728 C 120.951 384.820,121.200 385.124,121.200 385.828 C 121.200 386.363,121.391 386.800,121.624 386.800 C 121.857 386.800,121.920 386.575,121.765 386.300 C 121.539 385.900,121.590 385.900,122.021 386.300 C 122.362 386.617,123.778 386.800,125.880 386.800 C 129.155 386.800,129.200 386.814,129.200 387.800 C 129.200 388.733,129.333 388.800,131.200 388.800 C 133.067 388.800,133.200 388.867,133.200 389.800 C 133.200 390.783,133.253 390.800,136.400 390.800 C 139.547 390.800,139.600 390.817,139.600 391.800 L 139.600 392.800 144.372 392.800 C 149.017 392.800,149.148 392.824,149.272 393.700 C 149.393 394.549,149.608 394.606,153.093 394.715 C 156.635 394.825,156.782 394.866,156.693 395.715 C 156.603 396.573,156.731 396.603,160.900 396.714 C 165.174 396.826,165.200 396.833,165.200 397.814 L 165.200 398.800 171.400 398.800 C 176.644 398.800,177.600 398.892,177.600 399.400 C 177.600 399.926,180.378 400.000,200.200 400.000 C 220.022 400.000,222.800 399.926,222.800 399.400 C 222.800 398.893,223.733 398.800,228.800 398.800 L 234.800 398.800 234.800 397.800 C 234.800 396.830,237.943 396.435,243.543 396.700 C 243.939 396.718,243.966 396.606,243.643 396.283 C 242.470 395.110,243.171 394.800,247.000 394.800 C 250.787 394.800,250.800 394.796,250.800 393.800 L 250.800 392.800 255.600 392.800 L 260.400 392.800 260.400 391.800 C 260.400 390.844,260.507 390.800,262.800 390.800 C 264.120 390.800,265.179 390.665,265.153 390.500 C 264.910 388.962,265.181 388.800,268.000 388.800 C 270.720 388.800,270.800 388.771,270.800 387.800 C 270.800 386.817,270.855 386.800,273.974 386.800 L 277.147 386.800 276.960 385.768 C 276.793 384.850,276.895 384.745,277.886 384.811 C 280.425 384.979,280.800 384.846,280.800 383.770 C 280.800 382.895,280.966 382.751,281.900 382.812 C 285.914 383.077,287.200 382.831,287.200 381.800 C 287.200 381.067,287.413 380.800,288.000 380.800 C 288.587 380.800,288.800 380.533,288.800 379.800 C 288.800 378.817,288.853 378.800,292.000 378.800 C 293.760 378.800,295.179 378.665,295.153 378.500 C 294.982 377.421,295.292 376.800,296.000 376.800 C 296.593 376.800,296.800 376.533,296.800 375.770 C 296.800 374.895,296.966 374.751,297.900 374.812 C 300.698 374.997,301.200 374.843,301.200 373.800 C 301.200 372.881,301.347 372.800,303.000 372.800 C 304.653 372.800,304.800 372.719,304.800 371.800 C 304.800 370.867,304.933 370.800,306.800 370.800 C 308.667 370.800,308.800 370.733,308.800 369.800 C 308.800 369.000,309.000 368.800,309.800 368.800 C 310.600 368.800,310.800 368.600,310.800 367.800 C 310.800 367.000,311.000 366.800,311.800 366.800 C 312.600 366.800,312.800 366.600,312.800 365.800 C 312.800 364.867,312.933 364.800,314.800 364.800 C 316.667 364.800,316.800 364.733,316.800 363.800 C 316.800 363.000,317.000 362.800,317.800 362.800 C 318.600 362.800,318.800 362.600,318.800 361.800 C 318.800 360.867,318.933 360.800,320.800 360.800 C 322.667 360.800,322.800 360.733,322.800 359.800 C 322.800 359.000,323.000 358.800,323.800 358.800 C 324.600 358.800,324.800 358.600,324.800 357.800 C 324.800 357.000,325.000 356.800,325.800 356.800 C 326.600 356.800,326.800 356.600,326.800 355.800 C 326.800 355.000,327.000 354.800,327.800 354.800 C 328.600 354.800,328.800 354.600,328.800 353.800 C 328.800 353.000,329.000 352.800,329.800 352.800 C 330.600 352.800,330.800 352.600,330.800 351.800 C 330.800 350.867,330.933 350.800,332.800 350.800 C 334.667 350.800,334.800 350.733,334.800 349.800 C 334.800 349.000,335.000 348.800,335.800 348.800 C 336.600 348.800,336.800 348.600,336.800 347.800 C 336.800 347.000,337.000 346.800,337.800 346.800 C 338.600 346.800,338.800 346.600,338.800 345.800 C 338.800 345.000,339.000 344.800,339.800 344.800 C 340.600 344.800,340.800 344.600,340.800 343.800 C 340.800 343.000,341.000 342.800,341.800 342.800 C 342.600 342.800,342.800 342.600,342.800 341.800 C 342.800 341.000,343.000 340.800,343.800 340.800 C 344.600 340.800,344.800 340.600,344.800 339.800 C 344.800 339.000,345.000 338.800,345.800 338.800 C 346.600 338.800,346.800 338.600,346.800 337.800 C 346.800 337.000,347.000 336.800,347.800 336.800 C 348.600 336.800,348.800 336.600,348.800 335.800 C 348.800 335.000,349.000 334.800,349.800 334.800 C 350.733 334.800,350.800 334.667,350.800 332.800 C 350.800 330.933,350.867 330.800,351.800 330.800 C 352.600 330.800,352.800 330.600,352.800 329.800 C 352.800 329.000,353.000 328.800,353.800 328.800 C 354.600 328.800,354.800 328.600,354.800 327.800 C 354.800 327.000,355.000 326.800,355.800 326.800 C 356.600 326.800,356.800 326.600,356.800 325.800 C 356.800 325.000,357.000 324.800,357.800 324.800 C 358.600 324.800,358.800 324.600,358.800 323.800 C 358.800 323.000,359.000 322.800,359.800 322.800 C 360.733 322.800,360.800 322.667,360.800 320.800 C 360.800 318.933,360.867 318.800,361.800 318.800 C 362.600 318.800,362.800 318.600,362.800 317.800 C 362.800 317.000,363.000 316.800,363.800 316.800 C 364.733 316.800,364.800 316.667,364.800 314.800 C 364.800 312.933,364.867 312.800,365.800 312.800 C 366.600 312.800,366.800 312.600,366.800 311.800 C 366.800 311.000,367.000 310.800,367.800 310.800 C 368.600 310.800,368.800 310.600,368.800 309.800 C 368.800 309.000,369.000 308.800,369.800 308.800 C 370.733 308.800,370.800 308.667,370.800 306.800 C 370.800 304.933,370.867 304.800,371.800 304.800 C 372.733 304.800,372.800 304.667,372.800 302.800 C 372.800 300.933,372.867 300.800,373.800 300.800 C 374.733 300.800,374.800 300.667,374.800 298.800 C 374.800 296.933,374.867 296.800,375.800 296.800 C 376.600 296.800,376.800 296.600,376.800 295.800 C 376.800 295.000,377.000 294.800,377.800 294.800 C 378.778 294.800,378.800 294.733,378.800 291.800 C 378.800 288.867,378.822 288.800,379.800 288.800 C 380.600 288.800,380.800 288.600,380.800 287.800 C 380.800 287.000,381.000 286.800,381.800 286.800 C 382.778 286.800,382.800 286.733,382.800 283.800 C 382.800 280.867,382.822 280.800,383.800 280.800 C 384.600 280.800,384.800 280.600,384.800 279.800 C 384.800 279.000,385.000 278.800,385.800 278.800 L 386.800 278.800 386.800 274.800 L 386.800 270.800 387.800 270.800 C 388.733 270.800,388.800 270.667,388.800 268.800 C 388.800 266.933,388.867 266.800,389.800 266.800 C 390.778 266.800,390.800 266.733,390.800 263.800 C 390.800 260.867,390.822 260.800,391.800 260.800 L 392.800 260.800 392.800 255.800 L 392.800 250.800 393.800 250.800 C 394.788 250.800,394.800 250.760,394.800 247.400 C 394.800 244.040,394.812 244.000,395.800 244.000 L 396.800 244.000 396.800 239.805 C 396.800 235.692,396.818 235.611,397.700 235.705 C 398.596 235.800,398.600 235.774,398.710 229.300 C 398.801 223.887,398.919 222.800,399.410 222.800 C 399.923 222.800,400.000 219.830,400.000 200.000 C 400.000 180.170,399.923 177.200,399.410 177.200 C 398.919 177.200,398.801 176.113,398.710 170.700 C 398.602 164.302,398.586 164.198,397.700 164.072 C 396.836 163.949,396.800 163.787,396.800 159.972 C 396.800 156.002,396.800 156.000,395.800 156.000 C 394.812 156.000,394.800 155.960,394.800 152.600 C 394.800 149.240,394.788 149.200,393.800 149.200 L 392.800 149.200 392.800 144.182 C 392.800 140.400,392.677 139.181,392.300 139.230 C 390.911 139.410,390.800 139.186,390.800 136.200 C 390.800 133.267,390.778 133.200,389.800 133.200 C 388.867 133.200,388.800 133.067,388.800 131.200 C 388.800 129.333,388.733 129.200,387.800 129.200 L 386.800 129.200 386.800 125.200 L 386.800 121.200 385.800 121.200 C 385.000 121.200,384.800 121.000,384.800 120.200 C 384.800 119.400,384.600 119.200,383.800 119.200 C 382.822 119.200,382.800 119.133,382.800 116.200 C 382.800 113.267,382.778 113.200,381.800 113.200 C 381.000 113.200,380.800 113.000,380.800 112.200 C 380.800 111.400,380.600 111.200,379.800 111.200 C 378.822 111.200,378.800 111.133,378.800 108.200 C 378.800 105.267,378.778 105.200,377.800 105.200 C 377.000 105.200,376.800 105.000,376.800 104.200 C 376.800 103.400,376.600 103.200,375.800 103.200 C 374.867 103.200,374.800 103.067,374.800 101.200 C 374.800 99.333,374.733 99.200,373.800 99.200 C 372.867 99.200,372.800 99.067,372.800 97.200 C 372.800 95.333,372.733 95.200,371.800 95.200 C 370.867 95.200,370.800 95.067,370.800 93.200 C 370.800 91.333,370.733 91.200,369.800 91.200 C 369.000 91.200,368.800 91.000,368.800 90.200 C 368.800 89.400,368.600 89.200,367.800 89.200 C 367.000 89.200,366.800 89.000,366.800 88.200 C 366.800 87.400,366.600 87.200,365.800 87.200 C 364.867 87.200,364.800 87.067,364.800 85.200 C 364.800 83.333,364.733 83.200,363.800 83.200 C 363.000 83.200,362.800 83.000,362.800 82.200 C 362.800 81.400,362.600 81.200,361.800 81.200 C 360.867 81.200,360.800 81.067,360.800 79.200 C 360.800 77.333,360.733 77.200,359.800 77.200 C 359.000 77.200,358.800 77.000,358.800 76.200 C 358.800 75.400,358.600 75.200,357.800 75.200 C 357.000 75.200,356.800 75.000,356.800 74.200 C 356.800 73.400,356.600 73.200,355.800 73.200 C 355.000 73.200,354.800 73.000,354.800 72.200 C 354.800 71.400,354.600 71.200,353.800 71.200 C 353.000 71.200,352.800 71.000,352.800 70.200 C 352.800 69.400,352.600 69.200,351.800 69.200 C 350.867 69.200,350.800 69.067,350.800 67.200 C 350.800 65.333,350.733 65.200,349.800 65.200 C 349.000 65.200,348.800 65.000,348.800 64.200 C 348.800 63.400,348.600 63.200,347.800 63.200 C 347.000 63.200,346.800 63.000,346.800 62.200 C 346.800 61.400,346.600 61.200,345.800 61.200 C 345.000 61.200,344.800 61.000,344.800 60.200 C 344.800 59.400,344.600 59.200,343.800 59.200 C 343.000 59.200,342.800 59.000,342.800 58.200 C 342.800 57.400,342.600 57.200,341.800 57.200 C 341.000 57.200,340.800 57.000,340.800 56.200 C 340.800 55.400,340.600 55.200,339.800 55.200 C 339.000 55.200,338.800 55.000,338.800 54.200 C 338.800 53.400,338.600 53.200,337.800 53.200 C 337.000 53.200,336.800 53.000,336.800 52.200 C 336.800 51.400,336.600 51.200,335.800 51.200 C 335.000 51.200,334.800 51.000,334.800 50.200 C 334.800 49.267,334.667 49.200,332.800 49.200 C 330.933 49.200,330.800 49.133,330.800 48.200 C 330.800 47.400,330.600 47.200,329.800 47.200 C 329.000 47.200,328.800 47.000,328.800 46.200 C 328.800 45.400,328.600 45.200,327.800 45.200 C 327.000 45.200,326.800 45.000,326.800 44.200 C 326.800 43.400,326.600 43.200,325.800 43.200 C 325.000 43.200,324.800 43.000,324.800 42.200 C 324.800 41.400,324.600 41.200,323.800 41.200 C 323.000 41.200,322.800 41.000,322.800 40.200 C 322.800 39.267,322.667 39.200,320.800 39.200 C 318.933 39.200,318.800 39.133,318.800 38.200 C 318.800 37.400,318.600 37.200,317.800 37.200 C 317.000 37.200,316.800 37.000,316.800 36.200 C 316.800 35.267,316.667 35.200,314.800 35.200 C 312.933 35.200,312.800 35.133,312.800 34.200 C 312.800 33.400,312.600 33.200,311.800 33.200 C 311.000 33.200,310.800 33.000,310.800 32.200 C 310.800 31.400,310.600 31.200,309.800 31.200 C 309.000 31.200,308.800 31.000,308.800 30.200 C 308.800 29.267,308.667 29.200,306.800 29.200 C 304.933 29.200,304.800 29.133,304.800 28.200 C 304.800 27.281,304.653 27.200,303.000 27.200 C 301.347 27.200,301.200 27.119,301.200 26.200 C 301.200 25.157,300.698 25.003,297.900 25.188 C 296.966 25.249,296.800 25.105,296.800 24.230 C 296.800 23.414,296.604 23.200,295.855 23.200 C 295.064 23.200,294.942 23.038,295.102 22.200 L 295.293 21.200 292.047 21.200 C 288.850 21.200,288.800 21.185,288.800 20.200 C 288.800 19.416,288.596 19.200,287.855 19.200 C 287.064 19.200,286.942 19.038,287.102 18.200 L 287.293 17.200 284.047 17.200 C 280.850 17.200,280.800 17.185,280.800 16.200 C 280.800 15.416,280.596 15.200,279.855 15.200 C 279.064 15.200,278.942 15.038,279.102 14.200 L 279.293 13.200 275.047 13.200 L 270.800 13.200 270.800 12.200 C 270.800 11.270,270.663 11.200,268.855 11.200 C 266.997 11.200,266.919 11.156,267.102 10.200 L 267.293 9.200 263.847 9.200 C 261.951 9.200,260.421 9.065,260.447 8.900 C 260.708 7.250,260.565 7.200,255.600 7.200 L 250.800 7.200 250.800 6.200 C 250.800 5.206,250.776 5.200,247.153 5.200 L 243.507 5.200 243.698 4.200 L 243.889 3.200 239.345 3.200 L 234.800 3.200 234.800 2.200 L 234.800 1.200 228.800 1.200 C 223.733 1.200,222.800 1.107,222.800 0.600 C 222.800 0.074,220.000 0.000,200.000 0.000 C 180.000 0.000,177.200 0.074,177.200 0.600 M135.200 10.600 C 135.200 10.930,134.930 11.200,134.600 11.200 C 133.975 11.200,133.806 10.727,134.267 10.267 C 134.727 9.806,135.200 9.975,135.200 10.600 M121.200 13.833 C 121.200 14.182,121.414 14.395,121.675 14.308 C 122.417 14.061,122.540 13.200,121.833 13.200 C 121.485 13.200,121.200 13.485,121.200 13.833 M242.000 87.406 C 243.400 87.918,246.244 88.141,254.800 88.408 C 265.886 88.754,268.984 89.104,270.658 90.201 C 271.250 90.589,272.560 90.800,274.372 90.800 C 276.762 90.800,277.234 90.917,277.600 91.600 C 277.835 92.040,278.283 92.400,278.594 92.400 C 279.390 92.400,281.596 94.850,281.598 95.737 C 281.599 96.143,281.941 96.564,282.357 96.673 C 282.972 96.834,283.156 97.368,283.340 99.535 C 283.464 101.001,283.687 103.246,283.835 104.524 C 284.079 106.643,284.015 106.944,283.104 107.924 C 282.554 108.516,281.996 109.714,281.863 110.587 C 281.731 111.460,281.286 112.630,280.874 113.187 C 280.463 113.744,279.909 114.861,279.643 115.668 C 279.377 116.475,278.898 117.352,278.580 117.617 C 278.261 117.882,278.000 118.752,278.000 119.552 C 278.000 121.447,277.415 123.443,276.628 124.229 C 276.282 124.575,276.000 125.353,276.000 125.959 C 276.000 126.602,275.604 127.433,275.048 127.955 C 274.417 128.548,274.011 129.496,273.842 130.771 C 273.701 131.828,273.230 133.105,272.793 133.608 C 271.490 135.110,271.632 141.114,273.000 142.400 C 273.550 142.917,274.000 143.570,274.000 143.852 C 274.000 144.364,275.282 146.511,276.716 148.400 C 277.134 148.950,277.605 149.926,277.763 150.568 C 277.920 151.211,278.398 152.180,278.825 152.722 C 279.251 153.264,279.600 153.971,279.600 154.293 C 279.600 154.614,280.342 155.715,281.250 156.739 C 282.157 157.762,283.212 159.323,283.595 160.206 C 283.978 161.089,284.585 162.056,284.945 162.355 C 285.305 162.653,285.600 163.312,285.600 163.818 C 285.600 164.324,286.025 165.247,286.545 165.869 C 287.065 166.491,287.628 167.450,287.795 168.000 C 287.963 168.550,288.888 169.929,289.850 171.064 C 290.813 172.199,291.600 173.492,291.600 173.938 C 291.600 175.287,292.369 176.880,293.923 178.755 C 295.315 180.434,296.095 181.661,297.255 184.000 C 297.528 184.550,298.143 185.450,298.623 186.000 C 299.102 186.550,299.608 187.604,299.746 188.343 C 299.884 189.081,300.697 190.521,301.552 191.543 C 302.407 192.564,303.389 194.078,303.735 194.906 C 304.081 195.734,304.642 196.518,304.982 196.648 C 305.322 196.779,305.600 197.303,305.600 197.812 C 305.600 198.322,306.095 199.327,306.699 200.045 L 307.799 201.352 307.799 209.776 C 307.800 217.400,307.726 218.333,307.016 219.600 C 306.525 220.478,306.141 222.158,305.987 224.106 C 305.806 226.396,305.512 227.522,304.871 228.390 C 304.178 229.327,304.000 230.123,303.999 232.284 C 303.997 234.326,303.791 235.338,303.168 236.360 C 302.712 237.108,302.175 238.726,301.975 239.954 C 301.775 241.183,301.249 242.679,300.806 243.278 C 300.363 243.877,300.000 244.982,300.000 245.733 C 300.000 246.943,299.584 247.478,296.338 250.449 C 294.323 252.292,292.298 254.179,291.838 254.641 C 291.377 255.104,290.295 255.613,289.434 255.772 C 288.572 255.931,287.226 256.497,286.441 257.031 C 285.133 257.920,284.627 258.000,280.347 258.000 C 276.213 258.000,275.435 258.114,273.540 258.996 C 271.920 259.750,270.720 259.996,268.600 260.009 C 266.342 260.022,265.490 260.216,264.200 261.010 C 263.320 261.552,262.225 261.997,261.767 261.998 C 260.718 262.001,258.459 264.754,257.928 266.677 C 257.318 268.886,255.112 271.779,253.931 271.921 C 252.697 272.068,250.235 274.566,249.716 276.196 C 249.436 277.078,248.971 277.499,247.948 277.796 C 247.185 278.018,246.050 278.605,245.426 279.100 C 244.803 279.595,243.967 280.000,243.569 280.000 C 243.171 280.000,242.610 280.336,242.323 280.746 C 241.353 282.129,237.011 285.480,235.587 285.944 C 234.810 286.198,233.866 286.764,233.491 287.202 C 233.115 287.641,232.394 288.000,231.889 288.000 C 231.315 288.000,230.229 288.752,229.000 290.000 C 227.144 291.884,226.911 292.000,224.977 292.000 C 223.438 292.000,222.744 292.199,222.206 292.793 C 221.257 293.842,217.406 296.000,216.484 296.000 C 216.083 296.000,215.145 296.450,214.400 297.000 C 213.655 297.550,212.744 298.000,212.376 298.000 C 212.009 298.000,211.195 298.403,210.568 298.896 C 209.723 299.561,208.678 299.854,206.518 300.031 C 204.513 300.195,203.356 300.497,202.798 301.002 C 202.351 301.407,200.987 301.871,199.758 302.038 C 198.532 302.205,197.190 302.647,196.777 303.021 C 196.338 303.418,194.980 303.815,193.513 303.976 C 192.131 304.128,190.283 304.645,189.406 305.126 C 188.496 305.625,187.105 306.000,186.165 306.000 C 185.178 306.000,183.767 306.400,182.638 307.000 C 181.012 307.865,180.243 308.000,176.958 308.000 C 173.563 308.000,173.000 308.107,171.686 309.000 C 170.508 309.801,169.720 310.000,167.738 310.000 C 165.680 310.000,165.061 310.169,164.073 311.000 C 163.163 311.765,162.429 312.000,160.942 312.001 C 159.626 312.003,158.549 312.289,157.600 312.890 C 156.453 313.617,155.400 313.819,151.776 314.009 C 148.310 314.190,146.986 314.431,145.664 315.120 C 143.117 316.448,138.277 316.385,136.400 315.000 C 135.369 314.239,134.553 314.000,132.990 314.000 C 130.946 314.000,130.916 313.981,127.669 310.700 C 122.935 305.916,122.284 304.823,121.993 301.159 C 121.812 298.891,121.529 297.835,120.875 297.005 C 120.343 296.328,119.999 295.325,119.998 294.446 C 119.997 293.612,119.579 292.323,119.010 291.400 C 118.453 290.495,118.020 289.172,118.012 288.354 C 118.005 287.503,117.652 286.465,117.154 285.832 C 116.629 285.166,116.201 283.851,116.027 282.375 C 115.861 280.970,115.408 279.537,114.921 278.878 C 114.307 278.047,114.057 276.996,113.944 274.767 C 113.826 272.421,113.599 271.525,112.897 270.632 C 112.229 269.784,112.000 268.961,112.000 267.416 C 112.000 265.746,111.814 265.164,111.047 264.445 C 110.336 263.776,110.049 262.999,109.914 261.372 C 109.794 259.917,109.460 258.896,108.908 258.297 C 108.217 257.546,108.057 256.749,107.925 253.400 C 107.802 250.282,107.594 249.139,106.984 248.218 C 106.415 247.360,106.135 246.045,105.963 243.418 C 105.807 241.030,105.472 239.324,104.978 238.400 C 104.416 237.351,104.164 235.748,103.971 232.000 C 103.830 229.250,103.306 224.750,102.806 222.000 C 101.716 215.992,101.827 203.122,103.001 199.400 C 103.348 198.300,103.774 195.558,103.948 193.307 C 104.176 190.338,104.451 189.006,104.949 188.457 C 105.326 188.040,105.743 187.002,105.876 186.150 C 106.009 185.297,106.461 184.108,106.882 183.506 C 107.302 182.904,107.791 181.498,107.967 180.383 C 108.190 178.973,108.562 178.162,109.185 177.725 C 110.439 176.847,110.268 171.774,108.936 170.325 C 108.297 169.630,108.047 168.746,107.929 166.772 C 107.812 164.831,107.540 163.849,106.886 163.018 C 106.335 162.318,106.000 161.334,106.000 160.416 C 106.000 159.358,105.716 158.673,105.000 158.000 C 104.339 157.379,104.000 156.628,104.000 155.786 C 104.000 155.085,103.550 153.849,103.000 153.038 C 101.599 150.974,101.448 139.210,102.800 137.491 C 103.240 136.931,103.600 136.283,103.600 136.051 C 103.600 135.818,104.140 135.013,104.800 134.261 C 105.460 133.509,106.000 132.480,106.000 131.973 C 106.000 130.806,114.875 122.000,116.052 122.000 C 116.507 122.000,118.523 120.357,120.837 118.100 C 130.784 108.399,130.998 108.219,132.959 107.934 C 133.964 107.788,135.264 107.293,135.848 106.834 C 136.431 106.375,137.312 106.000,137.806 106.000 C 138.299 106.000,139.733 105.529,140.992 104.952 L 143.280 103.905 165.540 104.356 C 209.976 105.257,214.000 105.095,214.000 102.409 C 214.000 101.786,214.704 100.755,217.205 97.715 C 217.424 97.448,217.822 96.728,218.090 96.115 C 218.357 95.502,218.942 94.627,219.388 94.172 C 219.835 93.716,221.225 92.246,222.478 90.906 C 223.730 89.565,225.170 88.338,225.678 88.179 C 226.185 88.020,227.050 87.533,227.600 87.096 C 228.885 86.076,238.956 86.292,242.000 87.406 M232.778 108.300 C 231.622 109.565,230.430 111.189,230.129 111.909 C 229.828 112.629,229.299 113.529,228.954 113.909 C 228.610 114.289,227.712 115.590,226.961 116.800 C 224.771 120.326,223.162 122.000,221.963 122.000 C 221.383 122.000,220.393 122.405,219.764 122.900 L 218.620 123.800 180.810 124.000 L 143.000 124.200 141.095 126.000 C 139.912 127.118,138.700 127.876,137.897 128.000 C 136.896 128.155,136.452 128.523,135.931 129.631 C 135.546 130.450,134.019 132.064,132.362 133.403 C 130.770 134.689,127.761 137.401,125.677 139.429 L 121.887 143.116 122.084 146.894 C 122.239 149.846,122.462 150.927,123.105 151.836 C 123.558 152.476,124.045 153.853,124.188 154.895 C 124.331 155.938,124.728 157.071,125.070 157.413 C 125.413 157.756,125.863 158.793,126.071 159.718 C 126.279 160.643,126.776 161.760,127.175 162.200 C 127.669 162.744,127.967 163.878,128.108 165.744 C 128.246 167.576,128.574 168.839,129.093 169.544 C 129.521 170.125,129.989 171.320,130.133 172.200 C 130.277 173.080,130.538 174.520,130.712 175.400 C 130.927 176.484,130.864 177.322,130.517 178.000 C 130.235 178.550,130.004 179.464,130.002 180.030 C 130.001 180.610,129.562 181.472,129.000 182.000 C 128.336 182.624,128.000 183.371,128.000 184.224 C 128.000 185.152,127.723 185.690,127.000 186.163 C 126.450 186.524,126.000 187.139,126.000 187.532 C 126.000 187.924,125.550 188.855,125.000 189.600 C 124.450 190.345,124.000 191.394,124.000 191.930 C 124.000 192.467,123.595 193.557,123.100 194.353 C 121.383 197.113,121.579 228.021,123.335 231.400 C 123.563 231.840,123.872 234.057,124.020 236.327 C 124.228 239.523,124.468 240.696,125.084 241.528 C 125.639 242.279,125.942 243.488,126.088 245.534 C 126.240 247.658,126.532 248.782,127.149 249.616 C 127.849 250.564,128.000 251.331,128.000 253.953 C 128.000 256.767,128.117 257.277,129.000 258.327 C 129.745 259.212,130.000 259.978,130.000 261.327 C 130.000 262.676,130.255 263.442,131.000 264.327 C 131.698 265.157,132.000 265.994,132.000 267.098 C 132.000 268.018,132.419 269.468,133.000 270.562 C 133.550 271.596,134.000 272.985,134.000 273.647 C 134.000 274.891,134.621 276.405,135.316 276.858 C 135.534 277.000,135.860 278.871,136.041 281.016 C 136.290 283.975,136.555 285.120,137.135 285.758 C 137.573 286.239,137.989 287.433,138.106 288.542 C 138.219 289.610,138.691 290.997,139.156 291.625 C 139.620 292.254,140.000 293.279,140.000 293.904 C 140.000 296.304,143.720 296.838,147.660 295.004 C 148.853 294.449,150.538 294.006,151.467 294.004 C 152.441 294.002,153.962 293.584,155.125 293.000 C 156.761 292.178,157.697 292.000,160.374 292.000 C 162.803 292.000,164.017 291.804,165.145 291.228 C 165.978 290.803,167.816 290.325,169.229 290.165 C 170.669 290.003,172.240 289.554,172.800 289.146 C 173.350 288.745,174.880 288.298,176.200 288.153 C 177.520 288.007,179.289 287.542,180.132 287.120 C 181.227 286.570,182.878 286.287,185.932 286.125 C 189.090 285.958,190.524 285.704,191.447 285.150 C 192.133 284.737,193.231 284.400,193.888 284.400 C 194.544 284.400,195.874 283.978,196.844 283.463 C 197.813 282.947,199.255 282.404,200.048 282.255 C 200.841 282.106,201.813 281.628,202.207 281.192 C 202.601 280.756,203.393 280.400,203.965 280.400 C 204.538 280.400,205.852 279.950,206.885 279.400 C 207.918 278.850,209.269 278.400,209.888 278.400 C 211.212 278.400,213.505 277.253,215.966 275.359 C 216.937 274.612,218.034 274.000,218.404 274.000 C 218.773 274.000,219.399 273.644,219.793 273.208 C 220.187 272.772,221.124 272.300,221.875 272.160 C 222.625 272.019,223.455 271.700,223.720 271.452 C 223.984 271.203,225.235 270.213,226.500 269.251 C 227.765 268.290,228.800 267.359,228.800 267.183 C 228.800 267.007,229.317 266.750,229.950 266.611 C 230.582 266.472,231.514 265.918,232.019 265.379 C 232.525 264.841,233.379 264.400,233.916 264.400 C 235.345 264.400,242.400 257.290,242.400 255.850 C 242.400 255.235,242.733 254.600,243.210 254.303 C 243.656 254.027,244.199 253.140,244.417 252.334 C 244.964 250.306,249.901 245.088,252.545 243.742 C 254.390 242.803,255.219 242.669,260.654 242.424 C 265.500 242.207,266.929 242.008,267.812 241.429 C 268.570 240.932,270.146 240.609,272.839 240.397 C 275.911 240.156,276.994 239.906,277.834 239.244 C 278.426 238.779,279.491 238.400,280.207 238.400 C 281.699 238.400,284.400 235.812,284.400 234.383 C 284.400 233.935,284.794 232.810,285.275 231.884 C 286.001 230.488,286.191 229.277,286.385 224.800 C 286.570 220.533,286.770 219.174,287.342 218.321 C 287.802 217.633,288.175 216.029,288.369 213.898 C 288.537 212.059,288.854 210.232,289.074 209.839 C 289.367 209.316,289.276 208.735,288.737 207.677 C 288.332 206.882,288.000 205.937,288.000 205.577 C 288.000 205.218,287.640 204.598,287.200 204.200 C 286.710 203.757,286.400 202.968,286.400 202.167 C 286.400 201.273,286.105 200.626,285.468 200.125 C 284.608 199.448,284.107 198.695,282.727 196.000 C 282.445 195.450,281.356 193.956,280.307 192.679 C 278.729 190.758,278.400 190.080,278.400 188.743 C 278.400 187.343,278.133 186.854,276.400 185.085 C 275.167 183.825,274.400 182.688,274.400 182.118 C 274.400 181.610,273.950 180.803,273.400 180.325 C 272.781 179.787,272.400 179.031,272.400 178.342 C 272.400 177.643,271.952 176.770,271.200 176.000 C 270.540 175.325,270.000 174.490,270.000 174.144 C 270.000 173.540,268.841 171.887,267.233 170.200 C 266.814 169.760,266.189 168.770,265.844 168.000 C 265.499 167.230,265.052 166.330,264.851 166.000 C 264.650 165.670,263.934 164.287,263.260 162.927 C 262.586 161.567,261.217 159.379,260.217 158.065 C 258.876 156.302,258.400 155.315,258.400 154.300 C 258.400 153.405,258.104 152.657,257.553 152.162 C 256.055 150.814,254.472 148.193,254.178 146.575 C 254.021 145.709,253.541 144.302,253.112 143.449 C 252.229 141.693,252.173 133.446,253.040 132.885 C 253.700 132.458,254.400 130.965,254.400 129.984 C 254.400 129.506,254.850 128.581,255.400 127.927 C 256.023 127.187,256.400 126.243,256.400 125.423 C 256.400 124.674,256.778 123.627,257.279 122.990 C 257.897 122.205,258.210 121.148,258.332 119.436 C 258.461 117.631,258.751 116.707,259.453 115.869 C 259.974 115.247,260.400 114.324,260.400 113.818 C 260.400 113.312,260.667 112.676,260.993 112.406 C 261.827 111.714,262.480 109.179,261.980 108.576 C 261.709 108.249,258.974 108.027,253.292 107.871 C 246.965 107.696,244.194 107.450,241.600 106.831 C 235.946 105.481,235.248 105.597,232.778 108.300 M266.493 390.000 C 266.090 390.645,266.093 390.800,266.511 390.800 C 266.797 390.800,267.057 390.440,267.090 390.000 C 267.123 389.560,267.115 389.200,267.071 389.200 C 267.028 389.200,266.768 389.560,266.493 390.000 " stroke="none" fill="#6c49b5" fill-rule="evenodd"></path><path id="path1" d="M173.200 0.600 C 173.200 1.053,173.689 1.200,175.200 1.200 C 176.711 1.200,177.200 1.053,177.200 0.600 C 177.200 0.147,176.711 0.000,175.200 0.000 C 173.689 0.000,173.200 0.147,173.200 0.600 M222.800 0.600 C 222.800 1.053,223.289 1.200,224.800 1.200 C 226.311 1.200,226.800 1.053,226.800 0.600 C 226.800 0.147,226.311 0.000,224.800 0.000 C 223.289 0.000,222.800 0.147,222.800 0.600 M161.467 1.467 C 160.497 2.437,161.260 3.200,163.200 3.200 C 165.195 3.200,165.416 3.028,164.957 1.833 C 164.711 1.192,162.023 0.910,161.467 1.467 M234.800 2.285 C 234.800 3.116,234.983 3.200,236.800 3.200 C 238.913 3.200,239.781 1.965,238.052 1.417 C 236.398 0.892,234.800 1.318,234.800 2.285 M153.200 4.200 C 153.200 5.100,153.360 5.200,154.800 5.200 C 156.240 5.200,156.400 5.100,156.400 4.200 C 156.400 3.300,156.240 3.200,154.800 3.200 C 153.360 3.200,153.200 3.300,153.200 4.200 M243.867 3.467 C 242.993 4.341,243.654 5.200,245.200 5.200 C 246.640 5.200,246.800 5.100,246.800 4.200 C 246.800 3.212,244.657 2.676,243.867 3.467 M147.200 6.200 C 147.200 7.000,147.400 7.200,148.200 7.200 C 149.000 7.200,149.200 7.000,149.200 6.200 C 149.200 5.400,149.000 5.200,148.200 5.200 C 147.400 5.200,147.200 5.400,147.200 6.200 M250.800 6.200 C 250.800 7.000,251.000 7.200,251.800 7.200 C 252.600 7.200,252.800 7.000,252.800 6.200 C 252.800 5.400,252.600 5.200,251.800 5.200 C 251.000 5.200,250.800 5.400,250.800 6.200 M137.467 7.467 C 136.713 8.220,137.241 9.200,138.400 9.200 C 139.413 9.200,139.600 9.044,139.600 8.200 C 139.600 7.220,138.196 6.737,137.467 7.467 M260.492 8.200 C 260.561 9.039,260.779 9.200,261.843 9.200 C 263.122 9.200,263.563 8.214,262.600 7.506 C 261.617 6.784,260.407 7.182,260.492 8.200 M134.267 10.267 C 133.806 10.727,133.975 11.200,134.600 11.200 C 134.930 11.200,135.200 10.930,135.200 10.600 C 135.200 9.975,134.727 9.806,134.267 10.267 M127.200 12.200 C 127.200 13.000,127.400 13.200,128.200 13.200 C 129.000 13.200,129.200 13.000,129.200 12.200 C 129.200 11.400,129.000 11.200,128.200 11.200 C 127.400 11.200,127.200 11.400,127.200 12.200 M270.800 12.200 C 270.800 13.052,270.984 13.200,272.043 13.200 C 273.012 13.200,273.232 13.061,273.043 12.567 C 272.909 12.219,272.800 11.769,272.800 11.567 C 272.800 11.365,272.350 11.200,271.800 11.200 C 271.000 11.200,270.800 11.400,270.800 12.200 M121.900 14.033 C 120.974 15.047,121.013 15.200,122.200 15.200 C 123.000 15.200,123.200 15.000,123.200 14.200 C 123.200 13.024,122.861 12.981,121.900 14.033 M117.467 15.467 C 116.786 16.147,117.231 17.200,118.200 17.200 C 119.000 17.200,119.200 17.000,119.200 16.200 C 119.200 15.231,118.147 14.786,117.467 15.467 M280.800 16.200 C 280.800 17.052,280.984 17.200,282.043 17.200 C 283.012 17.200,283.232 17.061,283.043 16.567 C 282.909 16.219,282.800 15.769,282.800 15.567 C 282.800 15.365,282.350 15.200,281.800 15.200 C 281.000 15.200,280.800 15.400,280.800 16.200 M109.467 19.467 C 108.786 20.147,109.231 21.200,110.200 21.200 C 111.000 21.200,111.200 21.000,111.200 20.200 C 111.200 19.231,110.147 18.786,109.467 19.467 M288.800 20.200 C 288.800 21.052,288.984 21.200,290.043 21.200 C 291.012 21.200,291.232 21.061,291.043 20.567 C 290.909 20.219,290.800 19.769,290.800 19.567 C 290.800 19.365,290.350 19.200,289.800 19.200 C 289.000 19.200,288.800 19.400,288.800 20.200 M101.467 23.467 C 100.786 24.147,101.231 25.200,102.200 25.200 C 103.000 25.200,103.200 25.000,103.200 24.200 C 103.200 23.231,102.147 22.786,101.467 23.467 M296.800 24.227 C 296.800 25.110,296.953 25.236,297.900 25.127 C 299.626 24.928,299.271 23.222,297.500 23.206 C 297.014 23.202,296.800 23.513,296.800 24.227 M93.467 27.467 C 92.844 28.090,93.250 29.116,94.191 29.296 C 95.386 29.525,95.600 29.348,95.600 28.133 C 95.600 27.216,94.165 26.768,93.467 27.467 M304.800 28.200 C 304.800 29.000,305.000 29.200,305.800 29.200 C 306.600 29.200,306.800 29.000,306.800 28.200 C 306.800 27.400,306.600 27.200,305.800 27.200 C 305.000 27.200,304.800 27.400,304.800 28.200 M85.200 34.173 C 85.200 35.034,85.383 35.200,86.333 35.200 C 87.928 35.200,87.871 33.463,86.269 33.273 C 85.355 33.165,85.200 33.296,85.200 34.173 M312.800 34.200 C 312.800 35.000,313.000 35.200,313.800 35.200 C 314.600 35.200,314.800 35.000,314.800 34.200 C 314.800 33.400,314.600 33.200,313.800 33.200 C 313.000 33.200,312.800 33.400,312.800 34.200 M81.276 35.585 C 81.381 36.774,81.098 37.200,80.200 37.200 C 78.767 37.200,78.759 39.022,80.191 39.296 C 81.386 39.525,81.600 39.348,81.600 38.133 C 81.600 37.467,81.829 37.200,82.400 37.200 C 82.986 37.200,83.200 36.933,83.200 36.204 C 83.200 35.395,83.018 35.224,82.228 35.289 C 81.694 35.334,81.265 35.467,81.276 35.585 M318.800 38.200 C 318.800 39.000,319.000 39.200,319.800 39.200 C 320.600 39.200,320.800 39.000,320.800 38.200 C 320.800 37.400,320.600 37.200,319.800 37.200 C 319.000 37.200,318.800 37.400,318.800 38.200 M73.200 42.200 C 73.200 43.000,73.000 43.200,72.200 43.200 C 71.408 43.200,71.200 43.402,71.200 44.172 C 71.200 44.876,70.951 45.180,70.300 45.272 C 69.722 45.354,69.354 45.722,69.272 46.300 C 69.180 46.951,68.876 47.200,68.172 47.200 C 66.763 47.200,66.779 49.026,68.191 49.296 C 69.386 49.525,69.600 49.348,69.600 48.133 C 69.600 47.467,69.829 47.200,70.400 47.200 C 70.924 47.200,71.200 46.933,71.200 46.427 C 71.200 45.880,71.523 45.616,72.300 45.527 C 73.106 45.434,73.436 45.147,73.534 44.454 C 73.608 43.932,74.011 43.418,74.434 43.307 C 75.662 42.986,75.464 41.200,74.200 41.200 C 73.400 41.200,73.200 41.400,73.200 42.200 M324.800 42.200 C 324.800 43.000,325.000 43.200,325.800 43.200 C 326.600 43.200,326.800 43.400,326.800 44.200 C 326.800 45.000,327.000 45.200,327.800 45.200 C 328.600 45.200,328.800 45.400,328.800 46.200 C 328.800 47.000,329.000 47.200,329.800 47.200 C 330.600 47.200,330.800 47.400,330.800 48.200 C 330.800 49.000,331.000 49.200,331.800 49.200 C 332.600 49.200,332.800 49.000,332.800 48.200 C 332.800 47.400,332.600 47.200,331.800 47.200 C 331.000 47.200,330.800 47.000,330.800 46.200 C 330.800 45.400,330.600 45.200,329.800 45.200 C 329.000 45.200,328.800 45.000,328.800 44.200 C 328.800 43.400,328.600 43.200,327.800 43.200 C 327.000 43.200,326.800 43.000,326.800 42.200 C 326.800 41.400,326.600 41.200,325.800 41.200 C 325.000 41.200,324.800 41.400,324.800 42.200 M47.200 68.172 C 47.200 68.876,46.951 69.180,46.300 69.272 C 45.722 69.354,45.354 69.722,45.272 70.300 C 45.180 70.951,44.876 71.200,44.172 71.200 C 43.402 71.200,43.200 71.408,43.200 72.200 C 43.200 73.000,43.000 73.200,42.200 73.200 C 41.249 73.200,40.730 74.596,41.423 75.290 C 41.850 75.716,43.175 75.109,43.406 74.382 C 43.533 73.980,44.034 73.594,44.519 73.525 C 45.143 73.437,45.437 73.080,45.527 72.300 C 45.616 71.523,45.880 71.200,46.427 71.200 C 46.924 71.200,47.200 70.924,47.200 70.428 C 47.200 69.932,47.522 69.610,48.100 69.528 C 49.515 69.327,49.630 67.200,48.227 67.200 C 47.406 67.200,47.200 67.395,47.200 68.172 M350.800 68.172 C 350.800 69.002,350.993 69.200,351.800 69.200 C 352.600 69.200,352.800 69.400,352.800 70.200 C 352.800 71.000,353.000 71.200,353.800 71.200 C 354.600 71.200,354.800 71.400,354.800 72.200 C 354.800 73.000,355.000 73.200,355.800 73.200 C 356.600 73.200,356.800 73.400,356.800 74.200 C 356.800 75.000,357.000 75.200,357.800 75.200 C 358.600 75.200,358.800 75.000,358.800 74.200 C 358.800 73.400,358.600 73.200,357.800 73.200 C 357.000 73.200,356.800 73.000,356.800 72.200 C 356.800 71.408,356.598 71.200,355.828 71.200 C 355.124 71.200,354.820 70.951,354.728 70.300 C 354.647 69.730,354.279 69.354,353.725 69.275 C 353.179 69.198,352.802 68.821,352.725 68.275 C 352.531 66.915,350.800 66.823,350.800 68.172 M37.200 80.400 C 37.200 81.531,37.307 81.641,38.300 81.527 C 39.173 81.426,39.400 81.194,39.400 80.400 C 39.400 79.606,39.173 79.374,38.300 79.273 C 37.307 79.159,37.200 79.269,37.200 80.400 M360.800 80.200 C 360.800 81.000,361.000 81.200,361.800 81.200 C 362.600 81.200,362.800 81.400,362.800 82.200 C 362.800 83.007,362.998 83.200,363.828 83.200 C 365.196 83.200,365.081 81.468,363.700 81.272 C 363.049 81.180,362.800 80.876,362.800 80.172 C 362.800 79.402,362.592 79.200,361.800 79.200 C 361.000 79.200,360.800 79.400,360.800 80.200 M33.200 86.400 C 33.200 87.406,33.358 87.600,34.176 87.600 C 35.344 87.600,35.742 87.078,35.399 85.996 C 34.960 84.612,33.200 84.935,33.200 86.400 M364.800 86.172 C 364.800 87.009,364.991 87.200,365.828 87.200 C 367.196 87.200,367.081 85.468,365.700 85.272 C 364.967 85.168,364.800 85.335,364.800 86.172 M227.600 87.096 C 227.050 87.533,226.185 88.020,225.678 88.179 C 225.170 88.338,223.730 89.565,222.478 90.906 C 221.225 92.246,219.835 93.716,219.388 94.172 C 218.942 94.627,218.357 95.502,218.090 96.115 C 217.822 96.728,217.424 97.448,217.205 97.715 C 214.704 100.755,214.000 101.786,214.000 102.409 C 214.000 105.095,209.976 105.257,165.540 104.356 L 143.280 103.905 140.992 104.952 C 139.733 105.529,138.299 106.000,137.806 106.000 C 137.312 106.000,136.431 106.375,135.848 106.834 C 135.264 107.293,133.964 107.788,132.959 107.934 C 130.998 108.219,130.784 108.399,120.837 118.100 C 118.523 120.357,116.507 122.000,116.052 122.000 C 114.875 122.000,106.000 130.806,106.000 131.973 C 106.000 132.480,105.460 133.509,104.800 134.261 C 104.140 135.013,103.600 135.818,103.600 136.051 C 103.600 136.283,103.240 136.931,102.800 137.491 C 101.448 139.210,101.599 150.974,103.000 153.038 C 103.550 153.849,104.000 155.085,104.000 155.786 C 104.000 156.628,104.339 157.379,105.000 158.000 C 105.716 158.673,106.000 159.358,106.000 160.416 C 106.000 161.334,106.335 162.318,106.886 163.018 C 107.540 163.849,107.812 164.831,107.929 166.772 C 108.047 168.746,108.297 169.630,108.936 170.325 C 110.268 171.774,110.439 176.847,109.185 177.725 C 108.562 178.162,108.190 178.973,107.967 180.383 C 107.791 181.498,107.302 182.904,106.882 183.506 C 106.461 184.108,106.009 185.297,105.876 186.150 C 105.743 187.002,105.326 188.040,104.949 188.457 C 104.451 189.006,104.176 190.338,103.948 193.307 C 103.774 195.558,103.348 198.300,103.001 199.400 C 101.827 203.122,101.716 215.992,102.806 222.000 C 103.306 224.750,103.830 229.250,103.971 232.000 C 104.164 235.748,104.416 237.351,104.978 238.400 C 105.472 239.324,105.807 241.030,105.963 243.418 C 106.135 246.045,106.415 247.360,106.984 248.218 C 107.594 249.139,107.802 250.282,107.925 253.400 C 108.057 256.749,108.217 257.546,108.908 258.297 C 109.460 258.896,109.794 259.917,109.914 261.372 C 110.049 262.999,110.336 263.776,111.047 264.445 C 111.814 265.164,112.000 265.746,112.000 267.416 C 112.000 268.961,112.229 269.784,112.897 270.632 C 113.599 271.525,113.826 272.421,113.944 274.767 C 114.057 276.996,114.307 278.047,114.921 278.878 C 115.408 279.537,115.861 280.970,116.027 282.375 C 116.201 283.851,116.629 285.166,117.154 285.832 C 117.652 286.465,118.005 287.503,118.012 288.354 C 118.020 289.172,118.453 290.495,119.010 291.400 C 119.579 292.323,119.997 293.612,119.998 294.446 C 119.999 295.325,120.343 296.328,120.875 297.005 C 121.529 297.835,121.812 298.891,121.993 301.159 C 122.284 304.823,122.935 305.916,127.669 310.700 C 130.916 313.981,130.946 314.000,132.990 314.000 C 134.553 314.000,135.369 314.239,136.400 315.000 C 138.277 316.385,143.117 316.448,145.664 315.120 C 146.986 314.431,148.310 314.190,151.776 314.009 C 155.400 313.819,156.453 313.617,157.600 312.890 C 158.549 312.289,159.626 312.003,160.942 312.001 C 162.429 312.000,163.163 311.765,164.073 311.000 C 165.061 310.169,165.680 310.000,167.738 310.000 C 169.720 310.000,170.508 309.801,171.686 309.000 C 173.000 308.107,173.563 308.000,176.958 308.000 C 180.243 308.000,181.012 307.865,182.638 307.000 C 183.767 306.400,185.178 306.000,186.165 306.000 C 187.105 306.000,188.496 305.625,189.406 305.126 C 190.283 304.645,192.131 304.128,193.513 303.976 C 194.980 303.815,196.338 303.418,196.777 303.021 C 197.190 302.647,198.532 302.205,199.758 302.038 C 200.987 301.871,202.351 301.407,202.798 301.002 C 203.356 300.497,204.513 300.195,206.518 300.031 C 208.678 299.854,209.723 299.561,210.568 298.896 C 211.195 298.403,212.009 298.000,212.376 298.000 C 212.744 298.000,213.655 297.550,214.400 297.000 C 215.145 296.450,216.083 296.000,216.484 296.000 C 217.406 296.000,221.257 293.842,222.206 292.793 C 222.744 292.199,223.438 292.000,224.977 292.000 C 226.911 292.000,227.144 291.884,229.000 290.000 C 230.229 288.752,231.315 288.000,231.889 288.000 C 232.394 288.000,233.115 287.641,233.491 287.202 C 233.866 286.764,234.810 286.198,235.587 285.944 C 237.011 285.480,241.353 282.129,242.323 280.746 C 242.610 280.336,243.171 280.000,243.569 280.000 C 243.967 280.000,244.803 279.595,245.426 279.100 C 246.050 278.605,247.185 278.018,247.948 277.796 C 248.971 277.499,249.436 277.078,249.716 276.196 C 250.235 274.566,252.697 272.068,253.931 271.921 C 255.112 271.779,257.318 268.886,257.928 266.677 C 258.459 264.754,260.718 262.001,261.767 261.998 C 262.225 261.997,263.320 261.552,264.200 261.010 C 265.490 260.216,266.342 260.022,268.600 260.009 C 270.720 259.996,271.920 259.750,273.540 258.996 C 275.435 258.114,276.213 258.000,280.347 258.000 C 284.627 258.000,285.133 257.920,286.441 257.031 C 287.226 256.497,288.572 255.931,289.434 255.772 C 290.295 255.613,291.377 255.104,291.838 254.641 C 292.298 254.179,294.323 252.292,296.338 250.449 C 299.584 247.478,300.000 246.943,300.000 245.733 C 300.000 244.982,300.363 243.877,300.806 243.278 C 301.249 242.679,301.775 241.183,301.975 239.954 C 302.175 238.726,302.712 237.108,303.168 236.360 C 303.791 235.338,303.997 234.326,303.999 232.284 C 304.000 230.123,304.178 229.327,304.871 228.390 C 305.512 227.522,305.806 226.396,305.987 224.106 C 306.141 222.158,306.525 220.478,307.016 219.600 C 307.726 218.333,307.800 217.400,307.799 209.776 L 307.799 201.352 306.699 200.045 C 306.095 199.327,305.600 198.322,305.600 197.812 C 305.600 197.303,305.322 196.779,304.982 196.648 C 304.642 196.518,304.081 195.734,303.735 194.906 C 303.389 194.078,302.407 192.564,301.552 191.543 C 300.697 190.521,299.884 189.081,299.746 188.343 C 299.608 187.604,299.102 186.550,298.623 186.000 C 298.143 185.450,297.528 184.550,297.255 184.000 C 296.095 181.661,295.315 180.434,293.923 178.755 C 292.369 176.880,291.600 175.287,291.600 173.938 C 291.600 173.492,290.813 172.199,289.850 171.064 C 288.888 169.929,287.963 168.550,287.795 168.000 C 287.628 167.450,287.065 166.491,286.545 165.869 C 286.025 165.247,285.600 164.324,285.600 163.818 C 285.600 163.312,285.305 162.653,284.945 162.355 C 284.585 162.056,283.978 161.089,283.595 160.206 C 283.212 159.323,282.157 157.762,281.250 156.739 C 280.342 155.715,279.600 154.614,279.600 154.293 C 279.600 153.971,279.251 153.264,278.825 152.722 C 278.398 152.180,277.920 151.211,277.763 150.568 C 277.605 149.926,277.134 148.950,276.716 148.400 C 275.282 146.511,274.000 144.364,274.000 143.852 C 274.000 143.570,273.550 142.917,273.000 142.400 C 271.632 141.114,271.490 135.110,272.793 133.608 C 273.230 133.105,273.701 131.828,273.842 130.771 C 274.011 129.496,274.417 128.548,275.048 127.955 C 275.604 127.433,276.000 126.602,276.000 125.959 C 276.000 125.353,276.282 124.575,276.628 124.229 C 277.415 123.443,278.000 121.447,278.000 119.552 C 278.000 118.752,278.261 117.882,278.580 117.617 C 278.898 117.352,279.377 116.475,279.643 115.668 C 279.909 114.861,280.463 113.744,280.874 113.187 C 281.286 112.630,281.731 111.460,281.863 110.587 C 281.996 109.714,282.554 108.516,283.104 107.924 C 284.015 106.944,284.079 106.643,283.835 104.524 C 283.687 103.246,283.464 101.001,283.340 99.535 C 283.156 97.368,282.972 96.834,282.357 96.673 C 281.941 96.564,281.599 96.143,281.598 95.737 C 281.596 94.850,279.390 92.400,278.594 92.400 C 278.283 92.400,277.835 92.040,277.600 91.600 C 277.234 90.917,276.762 90.800,274.372 90.800 C 272.560 90.800,271.250 90.589,270.658 90.201 C 268.984 89.104,265.886 88.754,254.800 88.408 C 246.244 88.141,243.400 87.918,242.000 87.406 C 238.956 86.292,228.885 86.076,227.600 87.096 M27.273 94.297 C 27.402 95.411,28.545 96.015,29.229 95.331 C 29.908 94.652,29.156 93.200,28.127 93.200 C 27.294 93.200,27.166 93.365,27.273 94.297 M370.800 94.200 C 370.800 95.000,371.000 95.200,371.800 95.200 C 372.600 95.200,372.800 95.000,372.800 94.200 C 372.800 93.400,372.600 93.200,371.800 93.200 C 371.000 93.200,370.800 93.400,370.800 94.200 M23.467 101.467 C 22.748 102.185,23.219 103.600,24.176 103.600 C 25.344 103.600,25.742 103.078,25.399 101.996 C 25.155 101.229,24.017 100.917,23.467 101.467 M374.800 102.172 C 374.800 103.009,374.991 103.200,375.828 103.200 C 377.196 103.200,377.081 101.468,375.700 101.272 C 374.967 101.168,374.800 101.335,374.800 102.172 M21.200 106.400 C 21.200 107.390,21.363 107.600,22.133 107.600 C 23.348 107.600,23.525 107.386,23.296 106.191 C 22.995 104.614,21.200 104.793,21.200 106.400 M241.600 106.831 C 244.194 107.450,246.965 107.696,253.292 107.871 C 258.974 108.027,261.709 108.249,261.980 108.576 C 262.480 109.179,261.827 111.714,260.993 112.406 C 260.667 112.676,260.400 113.312,260.400 113.818 C 260.400 114.324,259.974 115.247,259.453 115.869 C 258.751 116.707,258.461 117.631,258.332 119.436 C 258.210 121.148,257.897 122.205,257.279 122.990 C 256.778 123.627,256.400 124.674,256.400 125.423 C 256.400 126.243,256.023 127.187,255.400 127.927 C 254.850 128.581,254.400 129.506,254.400 129.984 C 254.400 130.965,253.700 132.458,253.040 132.885 C 252.173 133.446,252.229 141.693,253.112 143.449 C 253.541 144.302,254.021 145.709,254.178 146.575 C 254.472 148.193,256.055 150.814,257.553 152.162 C 258.104 152.657,258.400 153.405,258.400 154.300 C 258.400 155.315,258.876 156.302,260.217 158.065 C 261.217 159.379,262.586 161.567,263.260 162.927 C 263.934 164.287,264.650 165.670,264.851 166.000 C 265.052 166.330,265.499 167.230,265.844 168.000 C 266.189 168.770,266.814 169.760,267.233 170.200 C 268.841 171.887,270.000 173.540,270.000 174.144 C 270.000 174.490,270.540 175.325,271.200 176.000 C 271.952 176.770,272.400 177.643,272.400 178.342 C 272.400 179.031,272.781 179.787,273.400 180.325 C 273.950 180.803,274.400 181.610,274.400 182.118 C 274.400 182.688,275.167 183.825,276.400 185.085 C 278.133 186.854,278.400 187.343,278.400 188.743 C 278.400 190.080,278.729 190.758,280.307 192.679 C 281.356 193.956,282.445 195.450,282.727 196.000 C 284.107 198.695,284.608 199.448,285.468 200.125 C 286.105 200.626,286.400 201.273,286.400 202.167 C 286.400 202.968,286.710 203.757,287.200 204.200 C 287.640 204.598,288.000 205.218,288.000 205.577 C 288.000 205.937,288.332 206.882,288.737 207.677 C 289.276 208.735,289.367 209.316,289.074 209.839 C 288.854 210.232,288.537 212.059,288.369 213.898 C 288.175 216.029,287.802 217.633,287.342 218.321 C 286.770 219.174,286.570 220.533,286.385 224.800 C 286.191 229.277,286.001 230.488,285.275 231.884 C 284.794 232.810,284.400 233.935,284.400 234.383 C 284.400 235.812,281.699 238.400,280.207 238.400 C 279.491 238.400,278.426 238.779,277.834 239.244 C 276.994 239.906,275.911 240.156,272.839 240.397 C 270.146 240.609,268.570 240.932,267.812 241.429 C 266.929 242.008,265.500 242.207,260.654 242.424 C 255.219 242.669,254.390 242.803,252.545 243.742 C 249.901 245.088,244.964 250.306,244.417 252.334 C 244.199 253.140,243.656 254.027,243.210 254.303 C 242.733 254.600,242.400 255.235,242.400 255.850 C 242.400 257.290,235.345 264.400,233.916 264.400 C 233.379 264.400,232.525 264.841,232.019 265.379 C 231.514 265.918,230.582 266.472,229.950 266.611 C 229.317 266.750,228.800 267.007,228.800 267.183 C 228.800 267.359,227.765 268.290,226.500 269.251 C 225.235 270.213,223.984 271.203,223.720 271.452 C 223.455 271.700,222.625 272.019,221.875 272.160 C 221.124 272.300,220.187 272.772,219.793 273.208 C 219.399 273.644,218.773 274.000,218.404 274.000 C 218.034 274.000,216.937 274.612,215.966 275.359 C 213.505 277.253,211.212 278.400,209.888 278.400 C 209.269 278.400,207.918 278.850,206.885 279.400 C 205.852 279.950,204.538 280.400,203.965 280.400 C 203.393 280.400,202.601 280.756,202.207 281.192 C 201.813 281.628,200.841 282.106,200.048 282.255 C 199.255 282.404,197.813 282.947,196.844 283.463 C 195.874 283.978,194.544 284.400,193.888 284.400 C 193.231 284.400,192.133 284.737,191.447 285.150 C 190.524 285.704,189.090 285.958,185.932 286.125 C 182.878 286.287,181.227 286.570,180.132 287.120 C 179.289 287.542,177.520 288.007,176.200 288.153 C 174.880 288.298,173.350 288.745,172.800 289.146 C 172.240 289.554,170.669 290.003,169.229 290.165 C 167.816 290.325,165.978 290.803,165.145 291.228 C 164.017 291.804,162.803 292.000,160.374 292.000 C 157.697 292.000,156.761 292.178,155.125 293.000 C 153.962 293.584,152.441 294.002,151.467 294.004 C 150.538 294.006,148.853 294.449,147.660 295.004 C 143.720 296.838,140.000 296.304,140.000 293.904 C 140.000 293.279,139.620 292.254,139.156 291.625 C 138.691 290.997,138.219 289.610,138.106 288.542 C 137.989 287.433,137.573 286.239,137.135 285.758 C 136.555 285.120,136.290 283.975,136.041 281.016 C 135.860 278.871,135.534 277.000,135.316 276.858 C 134.621 276.405,134.000 274.891,134.000 273.647 C 134.000 272.985,133.550 271.596,133.000 270.562 C 132.419 269.468,132.000 268.018,132.000 267.098 C 132.000 265.994,131.698 265.157,131.000 264.327 C 130.255 263.442,130.000 262.676,130.000 261.327 C 130.000 259.978,129.745 259.212,129.000 258.327 C 128.117 257.277,128.000 256.767,128.000 253.953 C 128.000 251.331,127.849 250.564,127.149 249.616 C 126.532 248.782,126.240 247.658,126.088 245.534 C 125.942 243.488,125.639 242.279,125.084 241.528 C 124.468 240.696,124.228 239.523,124.020 236.327 C 123.872 234.057,123.563 231.840,123.335 231.400 C 121.579 228.021,121.383 197.113,123.100 194.353 C 123.595 193.557,124.000 192.467,124.000 191.930 C 124.000 191.394,124.450 190.345,125.000 189.600 C 125.550 188.855,126.000 187.924,126.000 187.532 C 126.000 187.139,126.450 186.524,127.000 186.163 C 127.723 185.690,128.000 185.152,128.000 184.224 C 128.000 183.371,128.336 182.624,129.000 182.000 C 129.562 181.472,130.001 180.610,130.002 180.030 C 130.004 179.464,130.235 178.550,130.517 178.000 C 130.864 177.322,130.927 176.484,130.712 175.400 C 130.538 174.520,130.277 173.080,130.133 172.200 C 129.989 171.320,129.521 170.125,129.093 169.544 C 128.574 168.839,128.246 167.576,128.108 165.744 C 127.967 163.878,127.669 162.744,127.175 162.200 C 126.776 161.760,126.279 160.643,126.071 159.718 C 125.863 158.793,125.413 157.756,125.070 157.413 C 124.728 157.071,124.331 155.938,124.188 154.895 C 124.045 153.853,123.558 152.476,123.105 151.836 C 122.462 150.927,122.239 149.846,122.084 146.894 L 121.887 143.116 125.677 139.429 C 127.761 137.401,130.770 134.689,132.362 133.403 C 134.019 132.064,135.546 130.450,135.931 129.631 C 136.452 128.523,136.896 128.155,137.897 128.000 C 138.700 127.876,139.912 127.118,141.095 126.000 L 143.000 124.200 180.810 124.000 L 218.620 123.800 219.764 122.900 C 220.393 122.405,221.383 122.000,221.963 122.000 C 223.162 122.000,224.771 120.326,226.961 116.800 C 227.712 115.590,228.610 114.289,228.954 113.909 C 229.299 113.529,229.828 112.629,230.129 111.909 C 232.290 106.737,235.414 105.354,241.600 106.831 M19.200 110.400 C 19.200 111.406,19.358 111.600,20.176 111.600 C 21.352 111.600,21.636 111.225,21.334 110.069 C 20.953 108.613,19.200 108.885,19.200 110.400 M378.800 110.200 C 378.800 111.000,379.000 111.200,379.800 111.200 C 380.600 111.200,380.800 111.000,380.800 110.200 C 380.800 109.400,380.600 109.200,379.800 109.200 C 379.000 109.200,378.800 109.400,378.800 110.200 M17.200 114.400 C 17.200 115.406,17.358 115.600,18.176 115.600 C 19.352 115.600,19.636 115.225,19.334 114.069 C 18.953 112.613,17.200 112.885,17.200 114.400 M15.200 118.513 C 15.200 119.609,15.358 119.839,16.158 119.905 C 17.409 120.008,18.002 119.249,17.567 118.100 C 16.982 116.556,15.200 116.867,15.200 118.513 M382.800 118.200 C 382.800 119.000,383.000 119.200,383.800 119.200 C 384.948 119.200,385.075 118.732,384.171 117.829 C 383.268 116.925,382.800 117.052,382.800 118.200 M13.200 122.400 C 13.200 123.406,13.358 123.600,14.176 123.600 C 15.352 123.600,15.636 123.225,15.334 122.069 C 14.953 120.613,13.200 120.885,13.200 122.400 M11.200 128.600 C 11.200 129.807,11.331 130.000,12.151 130.000 C 13.419 130.000,13.994 129.228,13.567 128.100 C 12.961 126.502,11.200 126.874,11.200 128.600 M386.800 128.200 C 386.800 129.000,387.000 129.200,387.800 129.200 C 388.600 129.200,388.800 129.000,388.800 128.200 C 388.800 127.400,388.600 127.200,387.800 127.200 C 387.000 127.200,386.800 127.400,386.800 128.200 M9.200 134.400 C 9.200 135.406,9.358 135.600,10.176 135.600 C 11.344 135.600,11.742 135.078,11.399 133.996 C 10.960 132.612,9.200 132.935,9.200 134.400 M7.200 138.800 C 7.200 140.583,8.556 141.123,9.448 139.695 C 10.127 138.608,9.429 137.200,8.213 137.200 C 7.298 137.200,7.200 137.355,7.200 138.800 M390.800 138.167 C 390.800 139.159,391.416 139.623,392.300 139.298 C 393.300 138.930,392.888 137.200,391.800 137.200 C 391.009 137.200,390.800 137.402,390.800 138.167 M5.275 148.500 C 5.411 149.915,6.694 150.505,7.489 149.519 C 8.192 148.647,7.380 147.200,6.188 147.200 C 5.257 147.200,5.162 147.335,5.275 148.500 M392.800 148.172 C 392.800 149.009,392.991 149.200,393.828 149.200 C 394.665 149.200,394.832 149.033,394.728 148.300 C 394.532 146.919,392.800 146.804,392.800 148.172 M3.200 155.643 C 3.200 157.706,3.298 158.048,3.833 157.843 C 4.181 157.709,4.721 157.600,5.033 157.600 C 5.626 157.600,5.842 155.095,5.357 153.833 C 4.634 151.949,3.200 153.152,3.200 155.643 M394.800 154.600 C 394.800 155.827,394.924 156.000,395.800 156.000 C 396.676 156.000,396.800 155.827,396.800 154.600 C 396.800 153.373,396.676 153.200,395.800 153.200 C 394.924 153.200,394.800 153.373,394.800 154.600 M1.200 163.600 C 1.200 165.901,1.242 166.000,2.213 166.000 C 3.476 166.000,3.764 165.285,3.420 162.995 C 2.952 159.872,1.200 160.350,1.200 163.600 M396.800 162.553 C 396.800 163.679,396.968 163.939,397.800 164.098 C 398.727 164.275,398.800 164.176,398.800 162.745 C 398.800 161.364,398.694 161.200,397.800 161.200 C 396.930 161.200,396.800 161.376,396.800 162.553 M0.000 176.400 C 0.000 179.287,0.080 179.644,0.700 179.526 C 2.325 179.219,2.318 173.588,0.692 173.275 C 0.082 173.157,0.000 173.527,0.000 176.400 M398.800 175.200 C 398.800 176.711,398.947 177.200,399.400 177.200 C 399.853 177.200,400.000 176.711,400.000 175.200 C 400.000 173.689,399.853 173.200,399.400 173.200 C 398.947 173.200,398.800 173.689,398.800 175.200 M0.000 223.829 C 0.000 226.498,0.083 226.843,0.699 226.724 C 2.315 226.413,2.175 220.800,0.551 220.800 C 0.131 220.800,0.000 221.522,0.000 223.829 M398.800 224.800 C 398.800 226.311,398.947 226.800,399.400 226.800 C 399.853 226.800,400.000 226.311,400.000 224.800 C 400.000 223.289,399.853 222.800,399.400 222.800 C 398.947 222.800,398.800 223.289,398.800 224.800 M1.280 236.300 C 1.450 239.559,2.819 239.891,3.446 236.826 C 3.905 234.585,3.627 234.000,2.100 234.000 C 1.208 234.000,1.166 234.118,1.280 236.300 M396.800 237.270 C 396.800 238.686,396.897 238.842,397.700 238.728 C 399.137 238.524,399.244 235.823,397.818 235.742 C 396.889 235.690,396.800 235.823,396.800 237.270 M3.200 244.347 C 3.200 246.485,3.261 246.631,4.194 246.708 C 6.097 246.865,6.195 242.864,4.300 242.361 L 3.200 242.069 3.200 244.347 M394.800 245.400 C 394.800 246.627,394.924 246.800,395.800 246.800 C 396.676 246.800,396.800 246.627,396.800 245.400 C 396.800 244.173,396.676 244.000,395.800 244.000 C 394.924 244.000,394.800 244.173,394.800 245.400 M5.200 251.392 C 5.200 253.125,6.957 253.501,7.571 251.900 C 7.984 250.824,7.689 250.436,6.265 250.178 C 5.277 249.998,5.200 250.086,5.200 251.392 M392.800 251.800 C 392.800 252.600,393.000 252.800,393.800 252.800 C 394.600 252.800,394.800 252.600,394.800 251.800 C 394.800 251.000,394.600 250.800,393.800 250.800 C 393.000 250.800,392.800 251.000,392.800 251.800 M7.467 259.867 C 7.320 260.013,7.200 260.733,7.200 261.467 C 7.200 263.126,8.792 263.414,9.490 261.882 C 10.141 260.453,8.507 258.826,7.467 259.867 M390.800 261.800 C 390.800 262.600,391.000 262.800,391.800 262.800 C 392.600 262.800,392.800 262.600,392.800 261.800 C 392.800 261.000,392.600 260.800,391.800 260.800 C 391.000 260.800,390.800 261.000,390.800 261.800 M9.200 265.600 C 9.200 267.065,10.960 267.388,11.399 266.004 C 11.742 264.922,11.344 264.400,10.176 264.400 C 9.358 264.400,9.200 264.594,9.200 265.600 M11.700 270.298 C 10.664 270.647,11.105 272.800,12.213 272.800 C 13.156 272.800,14.170 271.453,13.759 270.748 C 13.545 270.380,12.279 270.104,11.700 270.298 M386.800 271.800 C 386.800 272.600,387.000 272.800,387.800 272.800 C 388.600 272.800,388.800 272.600,388.800 271.800 C 388.800 271.000,388.600 270.800,387.800 270.800 C 387.000 270.800,386.800 271.000,386.800 271.800 M13.200 277.600 C 13.200 278.731,13.307 278.841,14.300 278.727 C 15.173 278.626,15.400 278.394,15.400 277.600 C 15.400 276.806,15.173 276.574,14.300 276.473 C 13.307 276.359,13.200 276.469,13.200 277.600 M15.200 281.600 C 15.200 283.143,17.011 283.373,17.563 281.900 C 17.945 280.878,17.493 280.416,16.100 280.406 C 15.365 280.401,15.200 280.620,15.200 281.600 M382.800 281.800 C 382.800 282.600,383.000 282.800,383.800 282.800 C 384.600 282.800,384.800 282.600,384.800 281.800 C 384.800 281.000,384.600 280.800,383.800 280.800 C 383.000 280.800,382.800 281.000,382.800 281.800 M17.200 285.600 C 17.200 287.115,18.953 287.387,19.334 285.931 C 19.636 284.775,19.352 284.400,18.176 284.400 C 17.358 284.400,17.200 284.594,17.200 285.600 M19.273 289.500 C 19.434 290.897,20.992 291.284,21.391 290.027 C 21.744 288.916,21.350 288.400,20.150 288.400 C 19.292 288.400,19.165 288.559,19.273 289.500 M378.800 289.800 C 378.800 290.600,379.000 290.800,379.800 290.800 C 380.600 290.800,380.800 290.600,380.800 289.800 C 380.800 289.000,380.600 288.800,379.800 288.800 C 379.000 288.800,378.800 289.000,378.800 289.800 M21.200 293.600 C 21.200 295.207,22.995 295.386,23.296 293.809 C 23.525 292.614,23.348 292.400,22.133 292.400 C 21.363 292.400,21.200 292.610,21.200 293.600 M23.200 297.600 C 23.200 299.065,24.960 299.388,25.399 298.004 C 25.742 296.922,25.344 296.400,24.176 296.400 C 23.358 296.400,23.200 296.594,23.200 297.600 M374.800 297.800 C 374.800 298.865,375.526 299.114,376.320 298.320 C 377.114 297.526,376.865 296.800,375.800 296.800 C 375.000 296.800,374.800 297.000,374.800 297.800 M27.200 305.600 C 27.200 306.731,27.307 306.841,28.300 306.727 C 29.173 306.626,29.400 306.394,29.400 305.600 C 29.400 304.806,29.173 304.574,28.300 304.473 C 27.307 304.359,27.200 304.469,27.200 305.600 M370.800 305.800 C 370.800 306.600,371.000 306.800,371.800 306.800 C 372.600 306.800,372.800 306.600,372.800 305.800 C 372.800 305.000,372.600 304.800,371.800 304.800 C 371.000 304.800,370.800 305.000,370.800 305.800 M33.200 313.600 C 33.200 315.065,34.960 315.388,35.399 314.004 C 35.742 312.922,35.344 312.400,34.176 312.400 C 33.358 312.400,33.200 312.594,33.200 313.600 M364.800 313.800 C 364.800 314.600,365.000 314.800,365.800 314.800 C 366.600 314.800,366.800 314.600,366.800 313.800 C 366.800 313.000,366.600 312.800,365.800 312.800 C 365.000 312.800,364.800 313.000,364.800 313.800 M35.200 317.800 C 35.200 318.600,35.400 318.800,36.200 318.800 C 37.007 318.800,37.200 318.998,37.200 319.827 C 37.200 320.710,37.353 320.836,38.300 320.727 C 39.790 320.555,39.918 318.673,38.454 318.466 C 37.932 318.392,37.418 317.989,37.307 317.566 C 36.986 316.338,35.200 316.536,35.200 317.800 M360.800 319.800 C 360.800 320.600,361.000 320.800,361.800 320.800 C 362.600 320.800,362.800 320.600,362.800 319.800 C 362.800 319.000,362.600 318.800,361.800 318.800 C 361.000 318.800,360.800 319.000,360.800 319.800 M41.423 324.710 C 40.730 325.404,41.249 326.800,42.200 326.800 C 43.000 326.800,43.200 327.000,43.200 327.800 C 43.200 328.592,43.402 328.800,44.172 328.800 C 44.876 328.800,45.180 329.049,45.272 329.700 C 45.354 330.278,45.722 330.646,46.300 330.728 C 46.951 330.820,47.200 331.124,47.200 331.828 C 47.200 333.142,48.995 333.229,49.334 331.931 C 49.636 330.775,49.352 330.400,48.176 330.400 C 47.467 330.400,47.200 330.182,47.200 329.600 C 47.200 329.076,46.933 328.800,46.427 328.800 C 45.880 328.800,45.616 328.477,45.527 327.700 C 45.438 326.930,45.142 326.563,44.541 326.478 C 44.068 326.410,43.597 326.032,43.494 325.638 C 43.309 324.930,41.855 324.278,41.423 324.710 M356.800 325.800 C 356.800 326.600,356.600 326.800,355.800 326.800 C 355.000 326.800,354.800 327.000,354.800 327.800 C 354.800 328.600,354.600 328.800,353.800 328.800 C 353.000 328.800,352.800 329.000,352.800 329.800 C 352.800 330.600,352.600 330.800,351.800 330.800 C 351.000 330.800,350.800 331.000,350.800 331.800 C 350.800 332.600,351.000 332.800,351.800 332.800 C 352.592 332.800,352.800 332.598,352.800 331.828 C 352.800 331.124,353.049 330.820,353.700 330.728 C 354.278 330.646,354.646 330.278,354.728 329.700 C 354.820 329.049,355.124 328.800,355.828 328.800 C 356.598 328.800,356.800 328.592,356.800 327.800 C 356.800 327.000,357.000 326.800,357.800 326.800 C 358.600 326.800,358.800 326.600,358.800 325.800 C 358.800 325.000,358.600 324.800,357.800 324.800 C 357.000 324.800,356.800 325.000,356.800 325.800 M67.200 351.800 C 67.200 352.592,67.402 352.800,68.172 352.800 C 68.876 352.800,69.180 353.049,69.272 353.700 C 69.354 354.278,69.722 354.646,70.300 354.728 C 70.951 354.820,71.200 355.124,71.200 355.828 C 71.200 356.598,71.408 356.800,72.200 356.800 C 73.000 356.800,73.200 357.000,73.200 357.800 C 73.200 358.600,73.400 358.800,74.200 358.800 C 75.489 358.800,75.658 357.013,74.400 356.684 C 73.942 356.564,73.600 356.138,73.600 355.687 C 73.600 355.133,73.246 354.829,72.400 354.660 C 71.541 354.488,71.200 354.190,71.200 353.610 C 71.200 353.069,70.937 352.800,70.408 352.800 C 69.896 352.800,69.526 352.446,69.364 351.800 C 69.184 351.082,68.843 350.800,68.157 350.800 C 67.403 350.800,67.200 351.012,67.200 351.800 M330.800 351.800 C 330.800 352.600,330.600 352.800,329.800 352.800 C 329.000 352.800,328.800 353.000,328.800 353.800 C 328.800 354.600,328.600 354.800,327.800 354.800 C 327.000 354.800,326.800 355.000,326.800 355.800 C 326.800 356.600,326.600 356.800,325.800 356.800 C 325.000 356.800,324.800 357.000,324.800 357.800 C 324.800 358.600,325.000 358.800,325.800 358.800 C 326.600 358.800,326.800 358.600,326.800 357.800 C 326.800 357.000,327.000 356.800,327.800 356.800 C 328.592 356.800,328.800 356.598,328.800 355.828 C 328.800 355.124,329.049 354.820,329.700 354.728 C 330.278 354.646,330.646 354.278,330.728 353.700 C 330.820 353.049,331.124 352.800,331.828 352.800 C 332.598 352.800,332.800 352.592,332.800 351.800 C 332.800 351.000,332.600 350.800,331.800 350.800 C 331.000 350.800,330.800 351.000,330.800 351.800 M79.200 361.800 C 79.200 362.644,79.387 362.800,80.400 362.800 C 81.413 362.800,81.600 362.644,81.600 361.800 C 81.600 360.956,81.413 360.800,80.400 360.800 C 79.387 360.800,79.200 360.956,79.200 361.800 M318.800 361.800 C 318.800 362.600,318.600 362.800,317.800 362.800 C 317.000 362.800,316.800 363.000,316.800 363.800 C 316.800 364.600,317.000 364.800,317.800 364.800 C 318.600 364.800,318.800 364.600,318.800 363.800 C 318.800 363.000,319.000 362.800,319.800 362.800 C 320.600 362.800,320.800 362.600,320.800 361.800 C 320.800 361.000,320.600 360.800,319.800 360.800 C 319.000 360.800,318.800 361.000,318.800 361.800 M85.200 365.827 C 85.200 367.230,87.327 367.115,87.528 365.700 C 87.637 364.934,87.472 364.800,86.428 364.800 C 85.376 364.800,85.200 364.947,85.200 365.827 M312.800 365.800 C 312.800 366.600,313.000 366.800,313.800 366.800 C 314.600 366.800,314.800 366.600,314.800 365.800 C 314.800 365.000,314.600 364.800,313.800 364.800 C 313.000 364.800,312.800 365.000,312.800 365.800 M93.200 371.800 C 93.200 372.600,93.400 372.800,94.200 372.800 C 95.000 372.800,95.200 372.600,95.200 371.800 C 95.200 371.000,95.000 370.800,94.200 370.800 C 93.400 370.800,93.200 371.000,93.200 371.800 M304.800 371.800 C 304.800 372.600,305.000 372.800,305.800 372.800 C 306.600 372.800,306.800 372.600,306.800 371.800 C 306.800 371.000,306.600 370.800,305.800 370.800 C 305.000 370.800,304.800 371.000,304.800 371.800 M101.200 375.800 C 101.200 376.600,101.400 376.800,102.200 376.800 C 103.000 376.800,103.200 376.600,103.200 375.800 C 103.200 375.000,103.000 374.800,102.200 374.800 C 101.400 374.800,101.200 375.000,101.200 375.800 M296.800 375.780 C 296.800 376.666,296.960 376.801,297.927 376.727 C 299.483 376.608,299.435 375.059,297.869 374.873 C 296.954 374.765,296.800 374.895,296.800 375.780 M109.200 379.800 C 109.200 380.600,109.400 380.800,110.200 380.800 C 111.000 380.800,111.200 380.600,111.200 379.800 C 111.200 379.000,111.000 378.800,110.200 378.800 C 109.400 378.800,109.200 379.000,109.200 379.800 M288.800 379.827 C 288.800 381.223,290.849 381.109,291.060 379.700 C 291.174 378.937,291.013 378.800,289.997 378.800 C 288.979 378.800,288.800 378.953,288.800 379.827 M117.200 383.773 C 117.200 384.637,117.382 384.800,118.345 384.800 C 119.977 384.800,119.936 383.062,118.300 382.873 C 117.353 382.764,117.200 382.890,117.200 383.773 M280.800 383.780 C 280.800 384.669,280.958 384.801,281.942 384.726 C 283.534 384.604,283.500 383.058,281.900 382.873 C 280.951 382.764,280.800 382.889,280.800 383.780 M276.921 385.563 C 277.092 386.682,277.404 386.916,278.332 386.622 C 279.482 386.257,279.152 385.027,277.863 384.873 C 276.984 384.769,276.819 384.890,276.921 385.563 M127.200 387.800 C 127.200 388.600,127.400 388.800,128.200 388.800 C 129.000 388.800,129.200 388.600,129.200 387.800 C 129.200 387.000,129.000 386.800,128.200 386.800 C 127.400 386.800,127.200 387.000,127.200 387.800 M270.800 387.800 C 270.800 388.644,270.987 388.800,272.000 388.800 C 273.013 388.800,273.200 388.644,273.200 387.800 C 273.200 386.956,273.013 386.800,272.000 386.800 C 270.987 386.800,270.800 386.956,270.800 387.800 M265.084 389.600 C 264.832 390.563,265.435 391.035,266.154 390.438 C 266.440 390.201,266.753 390.087,266.851 390.184 C 266.949 390.282,267.029 390.010,267.029 389.581 C 267.029 388.501,265.367 388.517,265.084 389.600 M137.200 391.800 C 137.200 392.644,137.387 392.800,138.400 392.800 C 139.413 392.800,139.600 392.644,139.600 391.800 C 139.600 390.956,139.413 390.800,138.400 390.800 C 137.387 390.800,137.200 390.956,137.200 391.800 M260.400 391.825 C 260.400 392.741,260.539 392.837,261.700 392.725 C 263.657 392.537,263.698 390.800,261.745 390.800 C 260.568 390.800,260.400 390.928,260.400 391.825 M147.200 393.800 C 147.200 394.634,147.390 394.800,148.345 394.800 C 149.350 394.800,149.466 394.678,149.298 393.800 C 149.158 393.067,148.853 392.800,148.153 392.800 C 147.403 392.800,147.200 393.013,147.200 393.800 M250.800 393.800 C 250.800 394.600,251.000 394.800,251.800 394.800 C 252.600 394.800,252.800 394.600,252.800 393.800 C 252.800 393.000,252.600 392.800,251.800 392.800 C 251.000 392.800,250.800 393.000,250.800 393.800 M153.272 395.700 C 153.478 397.151,156.576 397.259,156.658 395.818 C 156.711 394.871,156.591 394.800,154.930 394.800 C 153.307 394.800,153.156 394.882,153.272 395.700 M243.311 395.581 C 243.423 396.010,243.310 396.430,243.058 396.514 C 242.807 396.598,243.546 396.700,244.701 396.740 C 246.697 396.811,246.800 396.765,246.800 395.807 C 246.800 394.876,246.660 394.800,244.953 394.800 C 243.319 394.800,243.130 394.890,243.311 395.581 M161.272 397.700 C 161.481 399.173,165.200 399.288,165.200 397.822 C 165.200 396.860,165.080 396.800,163.172 396.800 C 161.298 396.800,161.154 396.868,161.272 397.700 M234.800 397.822 C 234.800 399.288,238.519 399.173,238.728 397.700 C 238.846 396.868,238.702 396.800,236.828 396.800 C 234.920 396.800,234.800 396.860,234.800 397.822 M173.200 399.400 C 173.200 399.861,173.711 400.000,175.400 400.000 C 177.089 400.000,177.600 399.861,177.600 399.400 C 177.600 398.939,177.089 398.800,175.400 398.800 C 173.711 398.800,173.200 398.939,173.200 399.400 M222.800 399.400 C 222.800 399.853,223.289 400.000,224.800 400.000 C 226.311 400.000,226.800 399.853,226.800 399.400 C 226.800 398.947,226.311 398.800,224.800 398.800 C 223.289 398.800,222.800 398.947,222.800 399.400 " stroke="none" fill="#f9f8f9" fill-rule="evenodd"></path></g></svg>